<svg xmlns="http://www.w3.org/2000/svg" xmlns:xlink="http://www.w3.org/1999/xlink" viewBox="0 0 619.76 191.94"><defs><style>.cls-1{isolation:isolate;}.cls-2{fill:#fff;}.cls-10,.cls-11,.cls-3,.cls-6{fill-rule:evenodd;mix-blend-mode:multiply;}.cls-3{fill:url(#radial-gradient);}.cls-4{fill:url(#radial-gradient-2);}.cls-13,.cls-15,.cls-5,.cls-9{mix-blend-mode:screen;}.cls-5{fill:url(#linear-gradient);}.cls-6{fill:url(#radial-gradient-3);}.cls-7{fill:url(#radial-gradient-4);}.cls-8{fill:#ff1d25;}.cls-9{fill:url(#linear-gradient-2);}.cls-10{fill:url(#radial-gradient-5);}.cls-11{fill:url(#radial-gradient-6);}.cls-12{fill:url(#radial-gradient-7);}.cls-13{fill:url(#linear-gradient-3);}.cls-14{fill:url(#radial-gradient-8);}.cls-15{fill:url(#linear-gradient-4);}</style><radialGradient id="radial-gradient" cx="402.81" cy="-4617.28" r="77.81" gradientTransform="matrix(-0.52, -0.6, 0.12, -0.1, 831.79, -111.19)" gradientUnits="userSpaceOnUse"><stop offset="0.25"/><stop offset="0.42" stop-color="#464646"/><stop offset="0.63" stop-color="#949494"/><stop offset="0.8" stop-color="#cecece"/><stop offset="0.93" stop-color="#f2f2f2"/><stop offset="1" stop-color="#fff"/></radialGradient><radialGradient id="radial-gradient-2" cx="-1442.5" cy="725.01" r="71.29" gradientTransform="matrix(0.8, -0.61, 0.61, 0.8, 817.62, -1352.31)" gradientUnits="userSpaceOnUse"><stop offset="0" stop-color="#fff"/><stop offset="0.22" stop-color="#fafafb"/><stop offset="0.48" stop-color="#ededee"/><stop offset="0.74" stop-color="#d6d7d8"/><stop offset="0.87" stop-color="#c9cacc"/></radialGradient><linearGradient id="linear-gradient" x1="-1442.55" y1="726.4" x2="-1455.23" y2="691.75" gradientTransform="matrix(0.8, -0.61, 0.61, 0.8, 817.62, -1352.31)" gradientUnits="userSpaceOnUse"><stop offset="0" stop-color="#fff"/><stop offset="0.12" stop-color="#e1e1e1"/><stop offset="0.39" stop-color="#959595"/><stop offset="0.78" stop-color="#1d1d1d"/><stop offset="0.87"/></linearGradient><radialGradient id="radial-gradient-3" cx="382.44" cy="-4343.16" r="77.81" gradientTransform="matrix(-0.37, -0.71, 0.14, -0.07, 826.9, 59.14)" xlink:href="#radial-gradient"/><radialGradient id="radial-gradient-4" cx="-558.13" cy="320.7" r="71.29" gradientTransform="translate(470.89 -450.11) rotate(-27.43)" xlink:href="#radial-gradient-2"/><linearGradient id="linear-gradient-2" x1="-558.17" y1="322.09" x2="-570.86" y2="287.44" gradientTransform="translate(470.89 -450.11) rotate(-27.43)" xlink:href="#linear-gradient"/><radialGradient id="radial-gradient-5" cx="355.8" cy="-3984.24" r="77.82" gradientTransform="matrix(-0.19, -0.78, 0.15, -0.04, 773.77, 232.38)" xlink:href="#radial-gradient"/><radialGradient id="radial-gradient-6" cx="349.4" cy="-3563.02" r="77.8" gradientTransform="matrix(0.04, -0.8, 0.16, 0.01, 660.82, 403.49)" xlink:href="#radial-gradient"/><radialGradient id="radial-gradient-7" cx="452.99" cy="15.9" r="71.29" gradientTransform="matrix(0.97, -0.25, 0.25, 0.97, -295.21, 188.27)" xlink:href="#radial-gradient-2"/><linearGradient id="linear-gradient-3" x1="452.95" y1="17.29" x2="440.27" y2="-17.37" gradientTransform="matrix(0.97, -0.25, 0.25, 0.97, -295.21, 188.27)" xlink:href="#linear-gradient"/><radialGradient id="radial-gradient-8" cx="1545.74" cy="-341.09" r="71.29" gradientTransform="matrix(1, 0.01, -0.01, 1, -1386.56, 426.05)" xlink:href="#radial-gradient-2"/><linearGradient id="linear-gradient-4" x1="1545.7" y1="-339.7" x2="1533.01" y2="-374.35" gradientTransform="matrix(1, 0.01, -0.01, 1, -1386.56, 426.05)" xlink:href="#linear-gradient"/></defs><title>VACPA-LOGO</title><g class="cls-1"><g id="Layer_1" data-name="Layer 1"><rect class="cls-2" x="0.75" y="0.75" width="618.26" height="190.44"/><path d="M618.51,1.25V190.69H1.25V1.25H618.51m1-1H.25V191.69H619.51V.25Z"/><path d="M216.46,150.91l5.82,15.61L228,150.91h1.37l-6.54,17.16h-1.34L215,150.91Z"/><path d="M232.51,153.57h-1.58V152h1.58Zm-.13,14.5h-1.29v-12.2h1.29Z"/><path d="M236.85,158.56c.46-1.76,1.52-2.71,3.77-2.71h.72V157h-1c-2.74,0-3.43,1.7-3.43,5v6h-1.3v-12.2h1.22Z"/><path d="M245.17,163.78c-1.92-.18-2.51.54-2.51,1.4s1.09,1.55,3.05,1.55h1.94c3.9,0,5.53,1,5.53,3.15s-2.22,3.64-6.23,3.64-5.76-1-5.76-3.15c0-1.37,1.11-2.35,2.84-2.82-1.58-.28-2.45-1.06-2.45-2.22s.77-1.94,2.24-2.17a4.06,4.06,0,0,1-1.75-3.41c0-2.51,2.09-4.34,4.83-4.34a4.63,4.63,0,0,1,4.16,2.2,2.3,2.3,0,0,1,2.35-1.74v1.35c-.85-.29-1.58.08-2,1.11a4.33,4.33,0,0,1,.24,1.45c0,2.58-1.89,4.23-4.81,4.23A5.49,5.49,0,0,1,245.17,163.78Zm1.24,4.11c-2.38.05-4.09,1-4.09,2.4s1.5,2.25,4.66,2.25,5-.93,5-2.58-1.13-2.07-4.47-2.07Zm4-8.09v0a3.57,3.57,0,0,0-7.13-.06v.06c0,2,1.34,3.23,3.51,3.23S250.44,161.82,250.44,159.8Z"/><path d="M256.66,153.57h-1.57V152h1.57Zm-.13,14.5h-1.29v-12.2h1.29Z"/><path d="M261,159.13a4.31,4.31,0,0,1,4.39-3.51c2.56,0,4.21,1.68,4.21,4.67v7.78h-1.29V160.4c0-2.41-1.21-3.65-3.13-3.65-2.81,0-4.13,2.33-4.13,6.44v4.88h-1.29v-12.2H261Z"/><path d="M274.13,153.57h-1.58V152h1.58Zm-.13,14.5h-1.29v-12.2H274Z"/><path d="M276.45,164.89c0-2.56,2.17-3.25,4.52-3.77,1.81-.41,3.49-.67,4-1.55v-.13c0-1.83-1-2.76-3.25-2.76-2.07,0-3.62.75-3.64,2.84v.1h-1.32c0-2.74,2.12-4,5-4,3,0,4.52,1.37,4.52,4.1v7.21l0,1.14H285v-2.38a4.67,4.67,0,0,1-4.47,2.64C278,168.33,276.45,166.91,276.45,164.89Zm8.55-1v-3.15c-.69.77-2.32,1-3.85,1.34-1.75.41-3.35,1-3.35,2.82,0,1.44,1,2.43,2.84,2.43A4.2,4.2,0,0,0,285,163.86Z"/><path d="M293.61,159.54c0-5.55,3.48-8.91,7.85-8.91,3.52,0,6.62,1.73,7.31,6.74l-1.39.06c-.6-4.48-3.13-5.64-5.89-5.64-3.62,0-6.46,2.82-6.46,7.62v.13c0,4.86,2.84,7.63,6.46,7.63,2.63,0,5.32-1.14,5.89-5.66l1.39.05c-.67,5-3.85,6.8-7.33,6.8C297.09,168.36,293.61,165,293.61,159.54Z"/><path d="M312.44,158.9a4.29,4.29,0,0,1,4.31-3.28c2.56,0,4.24,1.68,4.24,4.67v7.78h-1.32V160.4c0-2.41-1.18-3.65-3.12-3.65-2.79,0-4.11,2.33-4.11,6.44v4.88H311.2V150.66h1.24Z"/><path d="M323.21,164.89c0-2.56,2.17-3.25,4.52-3.77,1.81-.41,3.49-.67,4-1.55v-.13c0-1.83-1-2.76-3.26-2.76-2.07,0-3.62.75-3.64,2.84v.1h-1.32c0-2.74,2.12-4,5-4,3,0,4.52,1.37,4.52,4.1v7.21l0,1.14h-1.32v-2.38a4.67,4.67,0,0,1-4.47,2.64C324.71,168.33,323.21,166.91,323.21,164.89Zm8.56-1v-3.15c-.7.77-2.33,1-3.86,1.34-1.75.41-3.35,1-3.35,2.82,0,1.44,1,2.43,2.84,2.43A4.22,4.22,0,0,0,331.77,163.86Z"/><path d="M337.32,158.56c.46-1.76,1.52-2.71,3.77-2.71h.72V157h-1c-2.74,0-3.43,1.7-3.43,5v6h-1.3v-12.2h1.22Z"/><path d="M345.35,153.57h-1.57V152h1.57Zm-.13,14.5h-1.29v-12.2h1.29Z"/><path d="M352.22,168.07c-2,0-2.71-.9-2.71-2.76V157h-2.38v-1.09h2.38v-2.66l1.24-1v3.61h3.1V157h-3.12v8.19c0,1.29.41,1.81,1.68,1.84h1.42v1.08Z"/><path d="M355.17,164.89c0-2.56,2.17-3.25,4.52-3.77,1.81-.41,3.49-.67,4-1.55v-.13c0-1.83-1-2.76-3.25-2.76-2.07,0-3.62.75-3.65,2.84v.1H355.5c0-2.74,2.12-4,5-4S365,157,365,159.72v7.21l0,1.14H363.7v-2.38a4.69,4.69,0,0,1-4.47,2.64C356.67,168.33,355.17,166.91,355.17,164.89Zm8.55-1v-3.15c-.7.77-2.32,1-3.85,1.34-1.76.41-3.36,1-3.36,2.82,0,1.44,1,2.43,2.84,2.43A4.21,4.21,0,0,0,363.72,163.86Z"/><path d="M369.3,165.62v2.45h-1.24V150.66h1.24v7.7a4.89,4.89,0,0,1,4.5-2.74c3.38,0,5.63,2.48,5.63,6.3v0c0,3.85-2.27,6.38-5.63,6.38A4.89,4.89,0,0,1,369.3,165.62Zm8.79-3.54v-.24c0-3.15-1.71-5.14-4.5-5.14s-4.34,2.09-4.34,5.2v.18c0,3,1.63,5.16,4.34,5.16S378.09,165.23,378.09,162.08Z"/><path d="M383.1,168.07h-1.27V150.66h1.27Z"/><path d="M385.5,162c0-3.75,2.4-6.38,5.89-6.38s5.48,2.37,5.48,6.25v.46H386.76c.08,2.87,1.79,4.91,4.66,4.91a4.35,4.35,0,0,0,4.49-2.86l1.09.38c-.68,1.89-2.38,3.57-5.58,3.57C387.72,168.33,385.5,165.69,385.5,162Zm1.26-.67h8.76c0-2.92-1.62-4.63-4.16-4.63S387,158.54,386.76,161.33Z"/><path d="M409.68,150.91c4.57,0,6.74,1.55,6.74,5,0,3.67-2.14,5.14-6.87,5.14H406v7h-1.34V150.91Zm-3.72,9h3.62c3.82,0,5.47-1.08,5.47-4s-1.55-3.88-5.37-3.88H406Z"/><path d="M417.17,162c0-3.77,2.4-6.35,6-6.35s5.94,2.58,5.94,6.35-2.4,6.36-6,6.36S417.17,165.75,417.17,162Zm10.65.05v-.1c0-3.15-1.79-5.22-4.65-5.22s-4.71,2.07-4.71,5.22v.1c0,3.18,1.79,5.22,4.65,5.22S427.82,165.18,427.82,162Z"/><path d="M432.75,162.26l6.38-6.39h1.53l-4.55,4.5,4.78,7.7h-1.42l-4.24-6.87-2.48,2.45v4.42h-1.24V150.66h1.24Z"/><path d="M441.56,162c0-3.75,2.4-6.38,5.89-6.38s5.48,2.37,5.48,6.25v.46h-10.1c.07,2.87,1.78,4.91,4.65,4.91a4.35,4.35,0,0,0,4.49-2.86l1.09.38c-.67,1.89-2.38,3.57-5.58,3.57C443.78,168.33,441.56,165.69,441.56,162Zm1.27-.67h8.75c-.05-2.92-1.62-4.63-4.16-4.63S443,158.54,442.83,161.33Z"/><path d="M456.78,158.56c.46-1.76,1.52-2.71,3.77-2.71h.72V157h-1c-2.74,0-3.44,1.7-3.44,5v6h-1.29v-12.2h1.22Z"/><path d="M472.82,150.86h1.68l6.25,17.21h-1.42l-2.14-5.94H470l-2.12,5.94h-1.36ZM470.42,161h6.38l-3.2-8.84Z"/><path d="M481.78,166.06l1-.68a5.44,5.44,0,0,0,4.29,1.94c1.88,0,3.07-.93,3.07-2.43s-1.6-2-3.75-2.53c-2.48-.57-4.11-1.16-4.11-3.38,0-1.94,1.74-3.36,4.09-3.36a6.3,6.3,0,0,1,4.75,2.12l-.93.72a5.06,5.06,0,0,0-3.85-1.81c-1.73,0-2.84.9-2.84,2.27,0,1.53,1.27,1.84,3.49,2.36s4.36,1.24,4.36,3.48-1.7,3.6-4.31,3.6A6.52,6.52,0,0,1,481.78,166.06Z"/><path d="M492.58,166.06l1-.68a5.47,5.47,0,0,0,4.29,1.94c1.89,0,3.08-.93,3.08-2.43s-1.6-2-3.75-2.53c-2.48-.57-4.11-1.16-4.11-3.38,0-1.94,1.74-3.36,4.09-3.36a6.32,6.32,0,0,1,4.75,2.12l-.93.72a5.06,5.06,0,0,0-3.85-1.81c-1.73,0-2.84.9-2.84,2.27,0,1.53,1.26,1.84,3.49,2.36s4.36,1.24,4.36,3.48-1.7,3.6-4.31,3.6A6.52,6.52,0,0,1,492.58,166.06Z"/><path d="M503.56,162c0-3.77,2.41-6.35,6-6.35s5.94,2.58,5.94,6.35-2.4,6.36-6,6.36S503.56,165.75,503.56,162Zm10.65.05v-.1c0-3.15-1.78-5.22-4.65-5.22s-4.71,2.07-4.71,5.22v.1c0,3.18,1.79,5.22,4.66,5.22S514.21,165.18,514.21,162Z"/><path d="M517.05,162c0-3.8,2.4-6.35,6-6.35a5.3,5.3,0,0,1,5.5,4.23l-1.27.29a4.07,4.07,0,0,0-4.23-3.46c-2.9,0-4.68,2.06-4.68,5.24v.1c0,3.11,1.76,5.22,4.65,5.22a4.1,4.1,0,0,0,4.29-3.48l1.27.31a5.34,5.34,0,0,1-5.56,4.26C519.45,168.33,517.05,165.72,517.05,162Z"/><path d="M532.19,153.57h-1.58V152h1.58Zm-.13,14.5h-1.29v-12.2h1.29Z"/><path d="M534.51,164.89c0-2.56,2.17-3.25,4.52-3.77,1.81-.41,3.49-.67,4-1.55v-.13c0-1.83-1-2.76-3.26-2.76-2.07,0-3.62.75-3.64,2.84v.1h-1.32c0-2.74,2.12-4,5-4,3,0,4.52,1.37,4.52,4.1v7.21l0,1.14H543v-2.38a4.67,4.67,0,0,1-4.47,2.64C536,168.33,534.51,166.91,534.51,164.89Zm8.56-1v-3.15c-.7.77-2.33,1-3.85,1.34-1.76.41-3.36,1-3.36,2.82,0,1.44,1,2.43,2.84,2.43A4.22,4.22,0,0,0,543.07,163.86Z"/><path d="M550.74,168.07c-2,0-2.72-.9-2.72-2.76V157h-2.37v-1.09H548v-2.66l1.24-1v3.61h3.11V157h-3.13v8.19c0,1.29.41,1.81,1.68,1.84h1.42v1.08Z"/><path d="M556.11,153.57h-1.58V152h1.58Zm-.13,14.5h-1.29v-12.2H556Z"/><path d="M558.38,162c0-3.77,2.41-6.35,6-6.35s5.94,2.58,5.94,6.35-2.4,6.36-6,6.36S558.38,165.75,558.38,162ZM569,162v-.1c0-3.15-1.78-5.22-4.65-5.22s-4.7,2.07-4.7,5.22v.1c0,3.18,1.78,5.22,4.65,5.22S569,165.18,569,162Z"/><path d="M574,159.13a4.31,4.31,0,0,1,4.39-3.51c2.56,0,4.22,1.68,4.22,4.67v7.78h-1.3V160.4c0-2.41-1.21-3.65-3.12-3.65-2.82,0-4.14,2.33-4.14,6.44v4.88h-1.29v-12.2H574Z"/><path d="M245.56,29.31l21.4,74.6,20.39-74.6H311L277.08,143.18H248.84L215,29.31Z"/><path d="M309.45,86.42c0-36.36,19.4-59.51,48.21-59.51,25.24,0,40.79,16.81,44.21,45.27h-25.1c-2-11.66-8.27-18.52-18.26-18.52-12.83,0-18.82,10.29-18.82,30.87V88c0,20.58,5.85,30.87,18.25,30.87,10.7,0,17.12-6.18,18.83-21.44h25.67c-1.85,33.78-20.11,48.19-45.35,48.19C328.28,145.58,309.45,122.6,309.45,86.42Z"/><path d="M449.64,29.31c27.95,0,40.08,11.84,40.08,37.39,0,23.49-13.27,40-42.5,40h-7.56v36.53H410.42V29.31Zm-10,57.28h6.7c12.69-.69,15.69-8.06,15.69-19.89,0-11.32-4.56-16.29-15.69-16.29h-6.7Z"/><path d="M515.39,29.31h32.09l32.23,113.87H549l-7-26.24H512.82l-7,26.24H482.3ZM518,96.53h19.54l-9.27-35.84Z"/><path class="cls-3" d="M26,71.62c5.57-4.82,29.85,14.11,54.22,42.29s39.63,54.94,34.06,59.76S84.42,159.55,60,131.36,20.42,76.43,26,71.62Z"/><path class="cls-4" d="M170.61,119.68a5.93,5.93,0,0,1-1.13,8.32l-60.72,46.26a5.93,5.93,0,0,1-8.31-1.13L32,83.23a5.94,5.94,0,0,1,1.12-8.32L93.8,28.66a5.94,5.94,0,0,1,8.32,1.12Z"/><path d="M104.21,87.2A78.68,78.68,0,0,1,87,83.86a61.86,61.86,0,0,1-1.37,17.52c-1.58,7.13-3.81,12.24-.12,17.08a11.5,11.5,0,0,0,16.15,1.89,11.78,11.78,0,0,0,4.69-9.86,59.11,59.11,0,0,1,2.71,6.3c1.63,5.16,0,8,0,8l10.81-8.23s-3.31.58-7.34-2.47c-1-.77-3.43-2.83-5.25-4.4a11.8,11.8,0,0,0,10.85-1.87,11.51,11.51,0,0,0,2.46-16.08C116.9,87,111.79,87.87,104.21,87.2Z"/><path d="M54.07,88.79A19.76,19.76,0,0,1,49.85,88a15.19,15.19,0,0,1-.33,4.29c-.39,1.74-.93,3,0,4.17a2.81,2.81,0,0,0,3.95.47,2.91,2.91,0,0,0,1.15-2.41c.23.49.53,1.14.66,1.53a2.56,2.56,0,0,1,0,2l2.64-2a2.53,2.53,0,0,1-1.8-.6c-.24-.19-.84-.7-1.28-1.08a2.87,2.87,0,0,0,2.66-.46,2.82,2.82,0,0,0,.6-3.93C57.17,88.73,55.92,89,54.07,88.79Z"/><path d="M53,83.09l-3.4,2.6-.35-.46a4,4,0,0,0,.65-.69c.15-.22.19-.37.12-.47a.68.68,0,0,0-.12-.12.45.45,0,0,0-.15-.13l-2.22-1.5-2.88,2.19c.12.38.23.7.33,1s.2.52.28.75.17.39.24.52l.18.31a.6.6,0,0,0,.67.11,3.14,3.14,0,0,0,.94-.46l.35.45-3.09,2.36-.34-.45a4.39,4.39,0,0,0,.32-.36,1.66,1.66,0,0,0,.24-.45,1.84,1.84,0,0,0,.09-.63,2.92,2.92,0,0,0-.15-.71c-.45-1.45-1-3.07-1.54-4.86l-1.55-4.79.46-.35,8.67,5.71a2.37,2.37,0,0,0,.51.25,1.66,1.66,0,0,0,.53.07,1.57,1.57,0,0,0,.46-.12,2.24,2.24,0,0,0,.41-.2Zm-6.11-1.18L43,79.35l1.44,4.44Z"/><path d="M150.05,114.91a18.85,18.85,0,0,1,4.21.82,15.44,15.44,0,0,1,.34-4.29c.38-1.74.93-3,0-4.17a2.81,2.81,0,0,0-3.95-.47,2.89,2.89,0,0,0-1.15,2.42,13.92,13.92,0,0,1-.66-1.54,2.56,2.56,0,0,1,0-2l-2.65,2a2.52,2.52,0,0,1,1.8.6l1.29,1.08a2.9,2.9,0,0,0-2.66.46,2.8,2.8,0,0,0-.6,3.93C146.94,115,148.19,114.75,150.05,114.91Z"/><path d="M151.07,120.61l3.41-2.6.35.46a4.11,4.11,0,0,0-.66.69c-.15.22-.19.37-.11.47l.11.13.15.12,2.22,1.5,2.88-2.19c-.12-.38-.22-.7-.33-1s-.19-.52-.28-.75-.17-.39-.23-.52a1.76,1.76,0,0,0-.19-.3c-.13-.17-.35-.21-.67-.12a3.26,3.26,0,0,0-.94.46l-.35-.45,3.09-2.36.35.45a4.39,4.39,0,0,0-.32.36,1.72,1.72,0,0,0-.25.45,2.09,2.09,0,0,0-.08.63,2.92,2.92,0,0,0,.15.71q.67,2.17,1.54,4.86c.58,1.79,1.09,3.39,1.55,4.79l-.47.35-8.67-5.71a2.11,2.11,0,0,0-.5-.25,1.49,1.49,0,0,0-.54-.06,1.32,1.32,0,0,0-.46.11,2.57,2.57,0,0,0-.41.21Zm6.11,1.18,3.92,2.56-1.45-4.44Z"/><path class="cls-5" d="M93.77,29.46,33.87,75.09a5.87,5.87,0,0,0-1.1,8.23L79,144c6.73-22.28,20.81-57.34,47.28-81.54L102,30.59A5.86,5.86,0,0,0,93.77,29.46Z"/><path class="cls-6" d="M46.41,48c6.52-3.43,25.86,20.53,43.2,53.51s26.1,62.5,19.59,65.93S83.34,146.88,66,113.9,39.89,51.4,46.41,48Z"/><path class="cls-7" d="M179.85,122.9a5.94,5.94,0,0,1-2.53,8l-67.75,35.16a5.94,5.94,0,0,1-8-2.54L49.5,63.22a5.93,5.93,0,0,1,2.54-8l67.74-35.16a5.94,5.94,0,0,1,8,2.53Z"/><polygon class="cls-8" points="104.25 70.2 99.66 100.02 126.68 113.43 131.27 83.61 104.25 70.2"/><path class="cls-8" d="M70.3,66.69l-3.81,2-.26-.51a3.57,3.57,0,0,0,.76-.57c.19-.19.25-.33.2-.44a.94.94,0,0,0-.1-.14,1,1,0,0,0-.12-.15L65,65l-3.21,1.67c.05.39.1.73.15,1s.11.55.15.79.1.42.14.56a3.26,3.26,0,0,0,.13.33c.1.19.31.26.64.23a3.79,3.79,0,0,0,1-.29l.26.5-3.45,1.79-.26-.5a3.47,3.47,0,0,0,.38-.3,1.56,1.56,0,0,0,.32-.4,2,2,0,0,0,.19-.61,3,3,0,0,0,0-.72c-.2-1.5-.43-3.19-.69-5s-.5-3.53-.7-5l.51-.27,7.57,7.12a2,2,0,0,0,.45.33,1.69,1.69,0,0,0,.52.15,1.31,1.31,0,0,0,.47,0,2.36,2.36,0,0,0,.44-.13Zm-5.82-2.21L61.06,61.3l.66,4.61Z"/><polygon class="cls-8" points="66.47 71.22 64.9 81.37 74.1 85.93 75.66 75.79 66.47 71.22"/><path class="cls-8" d="M160.51,120.29l3.81-2,.26.51a4,4,0,0,0-.76.57c-.19.19-.25.33-.2.44s.06.09.09.15l.13.14,1.93,1.87,3.22-1.67c-.06-.39-.11-.73-.16-1s-.1-.55-.15-.79a4.06,4.06,0,0,0-.15-.55,1.33,1.33,0,0,0-.13-.33c-.1-.19-.3-.27-.63-.23a3.1,3.1,0,0,0-1,.29l-.26-.51,3.44-1.79.27.51a2.72,2.72,0,0,0-.38.3,1.57,1.57,0,0,0-.32.39,2,2,0,0,0-.19.61,3.09,3.09,0,0,0,0,.73c.2,1.5.42,3.18.69,5s.5,3.52.7,5l-.51.27-7.57-7.11a1.77,1.77,0,0,0-.45-.34,1.69,1.69,0,0,0-.52-.15,1.31,1.31,0,0,0-.47,0,1.75,1.75,0,0,0-.44.14Zm5.82,2.21,3.42,3.19-.66-4.62Z"/><polygon class="cls-8" points="164.34 115.76 165.9 105.61 156.71 101.05 155.15 111.2 164.34 115.76"/><path class="cls-9" d="M119.61,20.84,52.77,55.53a5.88,5.88,0,0,0-2.49,7.92l35.14,67.69C95.87,110.35,115.75,78.22,146,58.92L127.52,23.36A5.87,5.87,0,0,0,119.61,20.84Z"/><path class="cls-10" d="M80.25,36.66c7.17-1.71,20,26.28,28.67,62.52s9.89,67,2.73,68.72-20-26.28-28.67-62.52S73.1,38.38,80.25,36.66Z"/><path class="cls-11" d="M117.11,27.8c7.35.39,11.73,30.87,9.78,68.08s-9.51,67.06-16.87,66.68-11.73-30.87-9.77-68.08S109.76,27.42,117.11,27.8Z"/><path class="cls-12" d="M195.63,134.27a5.94,5.94,0,0,1-4.28,7.23l-73.93,19a5.94,5.94,0,0,1-7.23-4.28L82.09,46.74a5.94,5.94,0,0,1,4.28-7.23l73.93-19a5.94,5.94,0,0,1,7.23,4.28Z"/><path d="M147.9,79.5a11.14,11.14,0,0,0-.25-4.17,11.8,11.8,0,0,0-22.85,5.86A11,11,0,0,0,126.59,85a11.38,11.38,0,1,0,6.11,21.92A11.91,11.91,0,0,0,141,99.52a60,60,0,0,1,0,6.94c-.51,5.43-3.15,7.43-3.15,7.43l13.27-3.4s-3.3-.76-5.84-5.17c-.64-1.11-2.05-3.91-3.13-6.08a12,12,0,0,0,10.76,2.46,11.38,11.38,0,1,0-5-22.2Z"/><path d="M101.57,54.81l-4.15,1.07-.14-.56a4.58,4.58,0,0,0,.87-.38c.22-.15.32-.27.29-.39s0-.1-.06-.16a.68.68,0,0,0-.09-.17L96.83,52l-3.5.9c0,.39-.07.74-.08,1s0,.56,0,.81a4.54,4.54,0,0,0,0,.57,2.24,2.24,0,0,0,0,.35c.06.21.24.33.57.37a3.45,3.45,0,0,0,1.05-.05l.14.55-3.76,1-.14-.55a2.36,2.36,0,0,0,.43-.21,1.46,1.46,0,0,0,.4-.31,2.17,2.17,0,0,0,.33-.55,2.82,2.82,0,0,0,.13-.71c.15-1.51.31-3.2.47-5.08s.32-3.55.44-5l.57-.15,5.76,8.64A2.05,2.05,0,0,0,100,54a1.48,1.48,0,0,0,.47.26,1.46,1.46,0,0,0,.46.08,2.86,2.86,0,0,0,.46,0ZM96.4,51.34l-2.61-3.88-.39,4.65Z"/><path d="M100.69,62.17a2.83,2.83,0,0,0-.06-1.08,3,3,0,0,0-5.9,1.51,2.64,2.64,0,0,0,.46,1,2.94,2.94,0,1,0,1.58,5.67,3.09,3.09,0,0,0,2.13-1.9,15.39,15.39,0,0,1,0,1.79,2.77,2.77,0,0,1-.82,1.92l3.43-.88A2.69,2.69,0,0,1,100,68.83c-.16-.28-.53-1-.8-1.57a3.06,3.06,0,0,0,2.77.64,2.94,2.94,0,1,0-1.29-5.73Z"/><path d="M177.84,127.2l4.16-1.07.14.55a4,4,0,0,0-.87.39c-.23.14-.32.27-.29.38a.88.88,0,0,0,.06.17.56.56,0,0,0,.09.17l1.46,2.25,3.5-.9c0-.39.07-.74.08-1s0-.55,0-.8a5.14,5.14,0,0,0,0-.58,2.43,2.43,0,0,0-.05-.35q-.09-.3-.57-.36a3.43,3.43,0,0,0-1,0l-.15-.55,3.77-1,.14.55a2.36,2.36,0,0,0-.43.21,1.21,1.21,0,0,0-.4.31,1.61,1.61,0,0,0-.33.55,2.77,2.77,0,0,0-.14.71c-.15,1.51-.31,3.2-.47,5.08s-.31,3.54-.44,5l-.56.14-5.76-8.63a2.09,2.09,0,0,0-.37-.43,1.88,1.88,0,0,0-.47-.27,1.55,1.55,0,0,0-.47-.07,1.61,1.61,0,0,0-.46,0Zm5.18,3.46,2.61,3.88.39-4.65Z"/><path d="M178.73,119.84a2.83,2.83,0,0,0,.06,1.08,3,3,0,1,0,5.44-2.49,2.94,2.94,0,1,0-1.58-5.66,3.05,3.05,0,0,0-2.13,1.9,13.45,13.45,0,0,1,0-1.79,2.74,2.74,0,0,1,.81-1.92l-3.42.88a2.64,2.64,0,0,1,1.51,1.33c.16.29.52,1,.8,1.57a3.1,3.1,0,0,0-2.78-.63,2.94,2.94,0,1,0,1.3,5.73Z"/><path class="cls-13" d="M160,21.26,87,40a5.88,5.88,0,0,0-4.22,7.15l19,73.87c14.88-17.89,41.49-44.72,75.29-56.7l-10-38.8A5.88,5.88,0,0,0,160,21.26Z"/><path class="cls-14" d="M198.29,157.5a5.94,5.94,0,0,1-6,5.87l-76.32-.9a5.94,5.94,0,0,1-5.87-6l1.33-113a5.94,5.94,0,0,1,6-5.87l76.32.9a5.94,5.94,0,0,1,5.87,6Z"/><path class="cls-8" d="M142.19,107.54a84.7,84.7,0,0,1,12.4,14.22,66.54,66.54,0,0,1,12.73-13.93c6.05-5,11.31-7.84,11.39-14.38a12.35,12.35,0,0,0-12.42-12.27,12.65,12.65,0,0,0-11.19,6.33,12.58,12.58,0,0,0-11-6.59,12.36,12.36,0,0,0-12.71,12C131.3,99.36,136.23,102,142.19,107.54Z"/><path class="cls-8" d="M128.13,56.32l-4.28,0V55.7a4.3,4.3,0,0,0,.94-.15c.26-.08.38-.17.38-.29a1.21,1.21,0,0,0,0-.18,1.06,1.06,0,0,0,0-.19l-.83-2.55-3.62,0c-.14.37-.25.69-.34,1s-.17.53-.24.77a5.12,5.12,0,0,0-.13.55,1.78,1.78,0,0,0,0,.36c0,.21.14.38.45.5a3.47,3.47,0,0,0,1,.22v.57l-3.89-.05v-.57a2.65,2.65,0,0,0,.48-.08,1.7,1.7,0,0,0,.47-.2,2.13,2.13,0,0,0,.45-.45,2.61,2.61,0,0,0,.32-.65c.54-1.41,1.13-3,1.77-4.78s1.23-3.35,1.73-4.73h.58l3.32,9.84a1.79,1.79,0,0,0,.24.5,2,2,0,0,0,.39.39,1.58,1.58,0,0,0,.43.19,2.53,2.53,0,0,0,.45.09ZM124,51.62l-1.51-4.42-1.59,4.39Z"/><path class="cls-8" d="M119.19,66.7a21.26,21.26,0,0,1,3.12,3.57,16.5,16.5,0,0,1,3.19-3.5c1.52-1.25,2.85-2,2.87-3.61a3.11,3.11,0,0,0-3.13-3.08,3.15,3.15,0,0,0-2.8,1.59A3.2,3.2,0,0,0,119.67,60a3.11,3.11,0,0,0-3.2,3C116.46,64.65,117.69,65.3,119.19,66.7Z"/><path class="cls-8" d="M180.74,145,185,145v.56a5,5,0,0,0-.94.15c-.25.08-.38.18-.38.29a1.21,1.21,0,0,0,0,.18c0,.07,0,.13,0,.19l.83,2.55,3.62,0c.14-.37.25-.69.34-1s.17-.53.24-.77a5.57,5.57,0,0,0,.14-.55,3.12,3.12,0,0,0,0-.35c0-.22-.15-.39-.46-.51a3.47,3.47,0,0,0-1-.22v-.56l3.89,0v.57a2.7,2.7,0,0,0-.47.09,1.59,1.59,0,0,0-.47.19,2.19,2.19,0,0,0-.46.45,3.27,3.27,0,0,0-.32.65q-.79,2.13-1.77,4.78l-1.73,4.73h-.58l-3.32-9.84a1.94,1.94,0,0,0-.24-.5,1.71,1.71,0,0,0-.38-.38,1.65,1.65,0,0,0-.44-.2,2.53,2.53,0,0,0-.45-.09Zm4.1,4.69,1.5,4.42,1.6-4.39Z"/><path class="cls-8" d="M189.68,134.59a21.44,21.44,0,0,1-3.11-3.57,16.74,16.74,0,0,1-3.2,3.5c-1.52,1.25-2.84,2-2.86,3.61a3.1,3.1,0,0,0,3.12,3.08,3.16,3.16,0,0,0,2.81-1.59,3.16,3.16,0,0,0,2.77,1.66,3.11,3.11,0,0,0,3.19-3C192.42,136.64,191.18,136,189.68,134.59Z"/><path class="cls-15" d="M193.24,39.1l-75.3-.89A5.87,5.87,0,0,0,112,44l-.9,76.26c19-13.41,51.69-32.39,87.44-35.18l.47-40A5.87,5.87,0,0,0,193.24,39.1Z"/></g></g></svg>